#!OML:ASF H:\BabyWalks\Project 1\Capture day 1\Session 1\baby.ASF
:FULLY-SPECIFIED
:DEGREES
553
root 11.3252 15.7849 0.817917 -138.053 85.8069 -133.492
lowerback 24.867 0.0980624 0.820886
upperback 6.80685 1.10263 2.38097
thorax -6.33575 0.76791 1.77656
lowerneck 0.956371 -0.41677 7.64805
upperneck -13.0806 -1.15601 -10.8144
head -4.11974 -0.276166 -4.58332
rclavicle -4.37326e-015 -1.51076e-014
rhumerus -36.65 6.84691 -78.4382
rradius 41.5116
rwrist 12.9203
rhand -15.6139 -15.0195
rfingers 7.12502
rthumb 10.5726 -44.7335
lclavicle -4.37326e-015 -1.51076e-014
lhumerus -32.1788 -8.51853 77.2697
lradius 51.2703
lwrist -16.0867
lhand -1.91423 -1.52535
lfingers 7.12502
lthumb 23.7557 27.0263
rfemur -19.055 10.7903 22.5714
rtibia 65.0765
rfoot -34.3197 -3.2443
rtoes -18.4446
lfemur -22.973 -1.16999 -10.0988
ltibia 64.8376
lfoot -38.6619 -5.16704
ltoes -12.3242
554
root 11.3501 15.8192 0.799932 -138.081 85.9804 -134.1
lowerback 24.6325 0.0216185 0.913523
upperback 6.77174 1.00451 2.2903
thorax -6.25111 0.716046 1.65424
lowerneck 0.963234 -0.351225 7.65423
upperneck -13.0464 -1.08189 -10.9769
head -4.10285 -0.231695 -4.63811
rclavicle 4.77083e-015 1.86858e-014
rhumerus -37.2591 8.53081 -79.4751
rradius 43.8662
rwrist 11.307
rhand -15.3222 -14.4564
rfingers 7.12502
rthumb 10.8539 -44.1559
lclavicle 4.77083e-015 1.86858e-014
lhumerus -32.8512 -8.73318 77.9239
lradius 51.8352
lwrist -18.1544
lhand -3.46554 -2.1623
lfingers 7.12502
lthumb 22.2671 26.5749
rfemur -19.4883 10.5352 22.1177
rtibia 64.7823
rfoot -34.0993 -2.62044
rtoes -18.6059
lfemur -23.4568 -1.11101 -10.3209
ltibia 64.7308
lfoot -38.2113 -5.29715
ltoes -12.4552
555
root 11.3737 15.8658 0.785245 -137.529 86.1154 -134.12
lowerback 24.409 -0.0320064 1.01676
upperback 6.73867 0.941719 2.23012
thorax -6.17122 0.681563 1.54854
lowerneck 1.03291 -0.303884 7.68669
upperneck -13.1357 -1.03392 -11.1416
head -4.1363 -0.196751 -4.69959
rclavicle -4.96962e-016 -3.18055e-015
rhumerus -37.893 9.89768 -80.3526
rradius 46.1894
rwrist 9.85875
rhand -15.2623 -14.2104
rfingers 7.12502
rthumb 10.9117 -43.9068
lclavicle -4.96962e-016 -3.18055e-015
lhumerus -33.4967 -8.75927 78.513
lradius 52.3826
lwrist -19.3921
lhand -5.11424 -2.52688
lfingers 7.12502
lthumb 20.6836 26.391
rfemur -19.8355 10.3012 21.7601
rtibia 64.3037
rfoot -33.7615 -2.03967
rtoes -18.7065
lfemur -23.9064 -1.02289 -10.4583
ltibia 64.5214
lfoot -37.6449 -5.55494
ltoes -12.5937
556
root 11.3971 15.9269 0.774247 -136.309 86.2144 -133.43
lowerback 24.2264 -0.0625153 1.11963
upperback 6.71688 0.914265 2.20553
thorax -6.10094 0.665083 1.47138
lowerneck 1.13769 -0.264662 7.72864
upperneck -13.2976 -0.99753 -11.2994
head -4.19871 -0.165534 -4.76173
rclavicle 2.98177e-015 3.61788e-014
rhumerus -38.5175 10.9402 -81.0691
rradius 48.4202
rwrist 8.53753
rhand -15.4523 -14.2215
rfingers 7.12502
rthumb 10.7285 -43.9275
lclavicle 2.98177e-015 3.61788e-014
lhumerus -34.1167 -8.67351 79.0745
lradius 52.9355
lwrist -19.4671
lhand -6.60901 -2.57379
lfingers 7.12502
lthumb 19.2468 26.4938
rfemur -20.0437 10.101 21.5072
rtibia 63.6066
rfoot -33.3051 -1.48124
rtoes -18.6782
lfemur -24.257 -0.89728 -10.5061
ltibia 64.1739
lfoot -36.9616 -5.96314
ltoes -12.7317
557
root 11.421 16.0032 0.765992 -134.594 86.2876 -132.185
lowerback 24.0973 -0.0749677 1.21509
upperback 6.70768 0.914013 2.21022
thorax -6.04485 0.662806 1.42236
lowerneck 1.23852 -0.222777 7.76451
upperneck -13.4657 -0.956493 -11.4397
head -4.26184 -0.13238 -4.81781
rclavicle 2.38542e-015 7.55382e-015
rhumerus -39.1047 11.6665 -81.631
rradius 50.5085
rwrist 7.30361
rhand -15.8413 -14.3912
rfingers 7.12502
rthumb 10.3532 -44.1163
lclavicle 2.38542e-015 7.55382e-015
lhumerus -34.7147 -8.53535 79.6289
lradius 53.5118
lwrist -18.3075
lhand -7.77433 -2.34202
lfingers 7.12502
lthumb 18.126 26.8334
rfemur -20.0824 9.93808 21.3347
rtibia 62.6685
rfoot -32.7417 -0.944868
rtoes -18.5328
lfemur -24.4773 -0.756324 -10.4878
ltibia 63.6655
lfoot -36.1518 -6.52309
ltoes -12.8285
558
root 11.446 16.094 0.759602 -132.68 86.3433 -130.674
lowerback 24.0306 -0.0758794 1.29202
upperback 6.71002 0.929775 2.23744
thorax -6.00838 0.669346 1.40372
lowerneck 1.31418 -0.171358 7.77955
upperneck -13.5959 -0.900162 -11.5537
head -4.30775 -0.0934814 -4.86191
rclavicle 2.18663e-015 7.95139e-015
rhumerus -39.6304 12.1114 -82.0493
rradius 52.401
rwrist 6.16886
rhand -16.364 -14.5846
rfingers 7.12502
rthumb 9.849 -44.3343
lclavicle 2.18663e-015 7.95139e-015
lhumerus -35.2936 -8.38099 80.1793
lradius 54.1464
lwrist -16.0339
lhand -8.45097 -1.85561
lfingers 7.12502
lthumb 17.4749 27.3789
rfemur -19.9381 9.82104 21.2161
rtibia 61.486
rfoot -32.0829 -0.43523
rtoes -18.2949
lfemur -24.5512 -0.627344 -10.4311
ltibia 62.9852
lfoot -35.2127 -7.20864
ltoes -12.8939
559
root 11.472 16.1971 0.753899 -130.796 86.3919 -129.133
lowerback 24.0225 -0.0728317 1.34865
upperback 6.72024 0.949978 2.27499
thorax -5.99335 0.678871 1.40647
lowerneck 1.35574 -0.10665 7.7828
upperneck -13.6678 -0.822984 -11.6472
head -4.32813 -0.0471339 -4.897
rclavicle 8.34896e-015 -9.54166e-015
rhumerus -40.0729 12.3201 -82.3441
rradius 54.0639
rwrist 5.14125
rhand -16.9385 -14.7247
rfingers 7.12502
rthumb 9.2947 -44.4998
lclavicle 8.34896e-015 -9.54166e-015
lhumerus -35.8512 -8.23732 80.7103
lradius 54.843
lwrist -12.9297
lhand -8.63519 -1.15547
lfingers 7.12502
lthumb 17.2976 28.0947
rfemur -19.6197 9.75787 21.1255
rtibia 60.0714
rfoot -31.3424 0.0279682
rtoes -17.9943
lfemur -24.4891 -0.535254 -10.362
ltibia 62.1404
lfoot -34.148 -7.98445
ltoes -12.9203
560
root 11.4989 16.3112 0.748067 -129.022 86.4375 -127.66
lowerback 24.0617 -0.0722761 1.39169
upperback 6.73204 0.966269 2.31386
thorax -6.00057 0.686939 1.41938
lowerneck 1.34159 -0.0218334 7.76115
upperneck -13.6558 -0.714053 -11.7032
head -4.31048 0.0104791 -4.91503
rclavicle 3.97569e-016 -1.27222e-014
rhumerus -40.4168 12.3452 -82.544
rradius 55.4764
rwrist 4.21937
rhand -17.4922 -14.7887
rfingers 7.12502
rthumb 8.76035 -44.5869
lclavicle 3.97569e-016 -1.27222e-014
lhumerus -36.3838 -8.1113 81.1948
lradius 55.5834
lwrist -9.40184
lhand -8.38917 -0.306755
lfingers 7.12502
lthumb 17.5343 28.9225
rfemur -19.1665 9.75321 21.0518
rtibia 58.4494
rfoot -30.5222 0.436413
rtoes -17.6275
lfemur -24.3159 -0.495158 -10.2917
ltibia 61.1424
lfoot -32.9652 -8.81224
ltoes -12.9117
561
root 11.5263 16.4323 0.741327 -127.461 86.4909 -126.376
lowerback 24.137 -0.0746651 1.42806
upperback 6.73661 0.977226 2.33828
thorax -6.03365 0.69234 1.42178
lowerneck 1.29259 0.0749897 7.73979
upperneck -13.5735 -0.583622 -11.7272
head -4.26368 0.0739895 -4.92186
rclavicle 1.09332e-014 1.59028e-014
rhumerus -40.6627 12.2215 -82.6813
rradius 56.6382
rwrist 3.38841
rhand -17.9761 -14.8008
rfingers 7.12502
rthumb 8.29336 -44.618
lclavicle 1.09332e-014 1.59028e-014
lhumerus -36.8802 -8.0128 81.5973
lradius 56.3176
lwrist -5.95377
lhand -7.76459 0.626905
lfingers 7.12502
lthumb 18.1353 29.8015
rfemur -18.5915 9.81287 20.9777
rtibia 56.6512
rfoot -29.6507 0.751994
rtoes -17.25
lfemur -24.0617 -0.519927 -10.2376
ltibia 60.0163
lfoot -31.6843 -9.64572
ltoes -12.8736
562
root 11.554 16.5581 0.733217 -126.152 86.562 -125.339
lowerback 24.2318 -0.080673 1.45617
upperback 6.72734 0.979623 2.34035
thorax -6.09126 0.693096 1.40694
lowerneck 1.21234 0.180156 7.72277
upperneck -13.4288 -0.436892 -11.7199
head -4.19138 0.140999 -4.91832
rclavicle -1.13307e-014 -1.19271e-014
rhumerus -40.8158 11.9907 -82.7816
rradius 57.5669
rwrist 2.6485
rhand -18.3357 -14.8111
rfingers 7.12502
rthumb 7.94636 -44.6417
lclavicle -1.13307e-014 -1.19271e-014
lhumerus -37.3379 -7.95386 81.901
lradius 56.9924
lwrist -2.96763
lhand -6.86744 1.54011
lfingers 7.12502
lthumb 18.9983 30.6323
rfemur -17.9348 9.93916 20.8903
rtibia 54.7125
rfoot -28.7367 0.961139
rtoes -16.8714
lfemur -23.7526 -0.607657 -10.2152
ltibia 58.7806
lfoot -30.3381 -10.429
ltoes -12.8437
563
root 11.5819 16.6864 0.723437 -124.942 86.6496 -124.417
lowerback 24.3277 -0.0868834 1.49153
upperback 6.69791 0.979857 2.31563
thorax -6.17095 0.691821 1.35938
lowerneck 1.10326 0.285487 7.70794
upperneck -13.2235 -0.284248 -11.6708
head -4.09584 0.206121 -4.90036
rclavicle -7.35503e-015 -9.54166e-015
rhumerus -40.8924 11.6861 -82.8665
rradius 58.287
rwrist 1.99146
rhand -18.6006 -14.8481
rfingers 7.12502
rthumb 7.69063 -44.6882
lclavicle -7.35503e-015 -9.54166e-015
lhumerus -37.7496 -7.96922 82.1071
lradius 57.5545
lwrist -0.693789
lhand -5.80349 2.32916
lfingers 7.12502
lthumb 20.0212 31.3177
rfemur -17.237 10.1378 20.7934
rtibia 52.6684
rfoot -27.7815 1.0528
rtoes -16.5156
lfemur -23.4164 -0.753135 -10.2206
ltibia 57.4594
lfoot -28.9598 -11.1223
ltoes -12.8448
564
root 11.6101 16.8154 0.711866 -123.75 86.7551 -123.542
lowerback 24.4052 -0.0917344 1.53409
upperback 6.64799 0.979117 2.26651
thorax -6.26332 0.68891 1.28143
lowerneck 0.961475 0.389544 7.69316
upperneck -12.9603 -0.129047 -11.5876
head -3.97768 0.268463 -4.86999
rclavicle -3.18055e-015 -2.0276e-014
rhumerus -40.8982 11.359 -82.9388
rradius 58.8262
rwrist 1.42481
rhand -18.7387 -14.9482
rfingers 7.12502
rthumb 7.55737 -44.7932
lclavicle -3.18055e-015 -2.0276e-014
lhumerus -38.1113 -8.06813 82.2265
lradius 57.9675
lwrist 0.728942
lhand -4.67747 2.91414
lfingers 7.12502
lthumb 21.1033 31.7857
rfemur -16.531 10.4044 20.6834
rtibia 50.5554
rfoot -26.7924 1.02863
rtoes -16.2064
lfemur -23.0713 -0.947493 -10.2553
ltibia 56.0714
lfoot -27.5844 -11.6941
ltoes -12.9041
565
root 11.6386 16.943 0.698719 -122.342 86.8706 -122.492
lowerback 24.4515 -0.0901044 1.59629
upperback 6.57296 0.986436 2.19643
thorax -6.36702 0.688341 1.1671
lowerneck 0.787669 0.483833 7.67471
upperneck -12.6348 0.0170191 -11.4683
head -3.83709 0.322471 -4.82561
rclavicle -6.16232e-015 -6.75868e-015
rhumerus -40.8658 11.0293 -83.0093
rradius 59.2192
rwrist 0.961443
rhand -18.7502 -15.1347
rfingers 7.12502
rthumb 7.54631 -44.98
lclavicle -6.16232e-015 -6.75868e-015
lhumerus -38.4296 -8.27508 82.2701
lradius 58.2194
lwrist 1.27273
lhand -3.57794 3.232
lfingers 7.12502
lthumb 22.1592 31.982
rfemur -15.8532 10.7396 20.5703
rtibia 48.4286
rfoot -25.7876 0.898816
rtoes -15.9262
lfemur -22.7382 -1.17704 -10.305
ltibia 54.6574
lfoot -26.2636 -12.1216
ltoes -13.0256
566
root 11.6678 17.0675 0.684283 -120.607 86.9928 -121.163
lowerback 24.4499 -0.0775424 1.67334
upperback 6.47243 1.00622 2.11239
thorax -6.47427 0.692095 1.02558
lowerneck 0.593915 0.562832 7.65479
upperneck -12.2608 0.144547 -11.3287
head -3.68126 0.365117 -4.77292
rclavicle -1.23246e-014 -2.38542e-014
rhumerus -40.8143 10.7335 -83.0755
rradius 59.4965
rwrist 0.610918
rhand -18.6308 -15.4058
rfingers 7.12502
rthumb 7.66152 -45.247
lclavicle -1.23246e-014 -2.38542e-014
lhumerus -38.7097 -8.58888 82.2523
lradius 58.3251
lwrist 1.04174
lhand -2.57622 3.2886
lfingers 7.12502
lthumb 23.1206 31.9213
rfemur -15.2261 11.1338 20.4517
rtibia 46.3076
rfoot -24.7656 0.693955
rtoes -15.6554
lfemur -22.4294 -1.43461 -10.3648
ltibia 53.2232
lfoot -25.0128 -12.4043
ltoes -13.1748
